# This file uses centimeters as units for non-parametric coordinates.

mtllib Planter 2.mtl
g default
v -7.442576 0.012805 12.514990
v -6.985264 0.012805 12.514990
v -7.442576 1.012805 12.514990
v -6.985264 1.012805 12.514990
v -7.422978 1.012805 8.721645
v -7.004863 1.012805 8.504112
v -7.422978 0.012805 8.721645
v -7.004863 0.012805 8.504112
v -10.377832 1.012805 5.960412
v -10.377763 1.012805 5.299624
v -10.377763 0.012805 5.299624
v -10.377832 0.012805 5.960412
v -12.511198 1.012805 5.960187
v -12.511127 1.012805 5.299399
v -12.511127 0.012805 5.299399
v -12.511198 0.012805 5.960187
vt 0.375000 0.000000
vt 0.625000 0.000000
vt 0.375000 0.250000
vt 0.625000 0.250000
vt 0.375000 0.500000
vt 0.625000 0.500000
vt 0.375000 0.750000
vt 0.625000 0.750000
vt 0.375000 1.000000
vt 0.625000 1.000000
vt 0.875000 0.000000
vt 0.875000 0.250000
vt 0.125000 0.000000
vt 0.125000 0.250000
vt 0.375000 0.500000
vt 0.625000 0.500000
vt 0.625000 0.750000
vt 0.375000 0.750000
vt 0.375000 0.500000
vt 0.625000 0.500000
vt 0.625000 0.750000
vt 0.375000 0.750000
vn 0.000000 0.000000 1.000000
vn 0.000000 0.000000 1.000000
vn 0.000000 0.000000 1.000000
vn 0.000000 0.000000 1.000000
vn 0.000000 1.000000 0.000000
vn 0.000000 1.000000 0.000000
vn 0.000000 1.000000 0.000000
vn 0.000000 1.000000 0.000000
vn -1.000000 0.000000 -0.000107
vn -1.000000 0.000000 -0.000107
vn -1.000000 0.000000 -0.000107
vn -1.000000 0.000000 -0.000107
vn 0.000000 -1.000000 0.000000
vn 0.000000 -1.000000 0.000000
vn 0.000000 -1.000000 0.000000
vn 0.000000 -1.000000 0.000000
vn 0.999988 0.000000 -0.004886
vn 0.999988 0.000000 -0.004886
vn 0.999988 0.000000 -0.004886
vn 0.999988 0.000000 -0.004886
vn -0.999987 0.000000 -0.005167
vn -0.999987 0.000000 -0.005167
vn -0.999987 0.000000 -0.005167
vn -0.999987 0.000000 -0.005167
vn 0.000000 1.000000 0.000000
vn 0.000000 1.000000 0.000000
vn 0.688776 0.000000 -0.724974
vn 0.688776 0.000000 -0.724974
vn 0.688776 0.000000 -0.724974
vn 0.688776 0.000000 -0.724974
vn 0.000000 -1.000000 0.000000
vn 0.000000 -1.000000 0.000000
vn -0.682763 0.000000 0.730640
vn -0.682763 0.000000 0.730640
vn -0.682763 0.000000 0.730640
vn -0.682763 0.000000 0.730640
vn 0.000000 1.000000 0.000000
vn 0.000000 1.000000 0.000000
vn 0.000105 0.000000 -1.000000
vn 0.000105 0.000000 -1.000000
vn 0.000105 0.000000 -1.000000
vn 0.000105 0.000000 -1.000000
vn 0.000000 -1.000000 0.000000
vn 0.000000 -1.000000 0.000000
vn -0.000105 0.000000 1.000000
vn -0.000105 0.000000 1.000000
vn -0.000105 0.000000 1.000000
vn -0.000105 0.000000 1.000000
s off
g pCube27
usemtl initialShadingGroup
f 1/1/1 2/2/2 4/4/3 3/3/4
s 1
f 3/3/5 4/4/6 6/6/7 5/5/8
s off
f 13/19/9 14/20/10 15/21/11 16/22/12
s 2
f 7/7/13 8/8/14 2/10/15 1/9/16
s off
f 2/2/17 8/11/18 6/12/19 4/4/20
f 7/13/21 1/1/22 3/3/23 5/14/24
s 1
f 5/5/8 6/6/7 10/16/25 9/15/26
s off
f 6/6/27 8/8/28 11/17/29 10/16/30
s 2
f 8/8/14 7/7/13 12/18/31 11/17/32
s off
f 7/7/33 5/5/34 9/15/35 12/18/36
s 1
f 9/15/26 10/16/25 14/20/37 13/19/38
s off
f 10/16/39 11/17/40 15/21/41 14/20/42
s 2
f 11/17/32 12/18/31 16/22/43 15/21/44
s off
f 12/18/45 9/15/46 13/19/47 16/22/48
g default
v -10.364849 0.611875 9.644624
v -7.460459 0.611875 12.468862
v -12.533111 0.611875 7.487564
v -11.644201 0.611875 8.410173
v -7.460459 0.611875 10.853407
v -12.533111 0.611875 5.964905
v -10.364849 0.611875 5.964905
v -7.460459 0.611875 8.789144
vt 0.200000 0.600000
vt 0.400000 0.600000
vt 0.000000 0.800000
vt 0.200000 0.800000
vt 0.400000 0.800000
vt 0.000000 1.000000
vt 0.200000 1.000000
vt 0.400000 1.000000
vn -0.000000 1.000000 0.000000
vn -0.000000 1.000000 0.000000
vn -0.000000 1.000000 0.000000
vn -0.000000 1.000000 0.000000
vn -0.000000 1.000000 0.000000
vn -0.000000 1.000000 0.000000
vn -0.000000 1.000000 0.000000
vn -0.000000 1.000000 0.000000
s 1
g pPlane2
usemtl initialShadingGroup
f 17/23/49 18/24/50 21/27/51 20/26/52
f 19/25/53 20/26/52 23/29/54 22/28/55
f 20/26/52 21/27/51 24/30/56 23/29/54
