# This file uses centimeters as units for non-parametric coordinates.

mtllib Pressure floor 4x4.mtl
g default
v -2.600000 0.526974 2.600000
v 2.400000 0.526974 2.600000
v -2.600000 0.526974 -2.400000
v 2.400000 0.526974 -2.400000
v -2.600000 0.026974 2.600000
v -2.600000 0.026974 -2.400000
v 2.400000 0.026974 -2.400000
v 2.400000 0.026974 2.600000
vt 0.000000 0.000000
vt 1.000000 0.000000
vt 0.000000 1.000000
vt 1.000000 1.000000
vt 0.000000 0.000000
vt 0.000000 1.000000
vt 1.000000 1.000000
vt 1.000000 0.000000
vt 0.000000 0.000000
vt 0.000000 1.000000
vt 1.000000 1.000000
vt 1.000000 0.000000
vn 0.000000 -1.000000 0.000000
vn 0.000000 -1.000000 0.000000
vn 0.000000 -1.000000 0.000000
vn 0.000000 -1.000000 0.000000
vn 0.000000 1.000000 0.000000
vn 0.000000 1.000000 0.000000
vn 0.000000 1.000000 0.000000
vn 0.000000 1.000000 0.000000
vn -1.000000 0.000000 0.000000
vn -1.000000 0.000000 0.000000
vn -1.000000 0.000000 0.000000
vn -1.000000 0.000000 0.000000
vn 0.000000 0.000000 -1.000000
vn 0.000000 0.000000 -1.000000
vn 0.000000 0.000000 -1.000000
vn 0.000000 0.000000 -1.000000
vn 1.000000 0.000000 0.000000
vn 1.000000 0.000000 0.000000
vn 1.000000 0.000000 0.000000
vn 1.000000 0.000000 0.000000
vn 0.000000 0.000000 1.000000
vn 0.000000 0.000000 1.000000
vn 0.000000 0.000000 1.000000
vn 0.000000 0.000000 1.000000
s off
g pPlane2
usemtl initialShadingGroup
f 5/9/1 6/10/2 7/11/3 8/12/4
f 1/5/5 2/8/6 4/7/7 3/6/8
f 1/1/9 3/3/10 6/10/11 5/9/12
f 3/3/13 4/4/14 7/11/15 6/10/16
f 4/4/17 2/2/18 8/12/19 7/11/20
f 2/2/21 1/1/22 5/9/23 8/12/24
g default
v -2.475000 -0.137745 -0.025000
v -0.225000 -0.137745 -0.025000
v -2.475000 0.137745 -0.025000
v -0.225000 0.137745 -0.025000
v -2.475000 0.137745 -2.275000
v -0.225000 0.137745 -2.275000
v -2.475000 -0.137745 -2.275000
v -0.225000 -0.137745 -2.275000
v -2.408081 -0.137745 -2.208081
v -0.291919 -0.137745 -2.208081
v -0.291919 -0.137745 -0.091919
v -2.408081 -0.137745 -0.091919
v -2.341587 -0.229781 -2.141587
v -0.358413 -0.229781 -2.141587
v -0.358413 -0.229781 -0.158413
v -2.341587 -0.229781 -0.158413
vt 0.375000 0.000000
vt 0.625000 0.000000
vt 0.375000 0.250000
vt 0.625000 0.250000
vt 0.375000 0.500000
vt 0.625000 0.500000
vt 0.375000 0.750000
vt 0.625000 0.750000
vt 0.375000 1.000000
vt 0.625000 1.000000
vt 0.875000 0.000000
vt 0.875000 0.250000
vt 0.125000 0.000000
vt 0.125000 0.250000
vt 0.375000 0.750000
vt 0.625000 0.750000
vt 0.625000 1.000000
vt 0.375000 1.000000
vt 0.375000 0.750000
vt 0.625000 0.750000
vt 0.625000 1.000000
vt 0.375000 1.000000
vn 0.000000 0.000000 1.000000
vn 0.000000 0.000000 1.000000
vn 0.000000 0.000000 1.000000
vn 0.000000 0.000000 1.000000
vn 0.000000 1.000000 0.000000
vn 0.000000 1.000000 0.000000
vn 0.000000 1.000000 0.000000
vn 0.000000 1.000000 0.000000
vn 0.000000 0.000000 -1.000000
vn 0.000000 0.000000 -1.000000
vn 0.000000 0.000000 -1.000000
vn 0.000000 0.000000 -1.000000
vn 0.000000 -1.000000 0.000000
vn 0.000000 -1.000000 0.000000
vn 0.000000 -1.000000 0.000000
vn 0.000000 -1.000000 0.000000
vn 1.000000 0.000000 0.000000
vn 1.000000 0.000000 0.000000
vn 1.000000 0.000000 0.000000
vn 1.000000 0.000000 0.000000
vn -1.000000 0.000000 0.000000
vn -1.000000 0.000000 0.000000
vn -1.000000 0.000000 0.000000
vn -1.000000 0.000000 0.000000
vn 0.000000 -1.000000 -0.000000
vn 0.000000 -1.000000 -0.000000
vn 0.000000 -1.000000 -0.000000
vn 0.000000 -1.000000 -0.000000
vn 0.000000 -1.000000 0.000000
vn 0.000000 -1.000000 0.000000
vn 0.000000 -1.000000 0.000000
vn 0.000000 -1.000000 0.000000
vn 0.000000 -1.000000 0.000000
vn 0.000000 -1.000000 0.000000
vn 0.000000 -1.000000 0.000000
vn 0.000000 -1.000000 0.000000
vn 0.000000 -1.000000 0.000000
vn 0.000000 -1.000000 0.000000
vn 0.000000 -1.000000 0.000000
vn 0.000000 -1.000000 0.000000
vn 0.000000 -0.585625 -0.810582
vn 0.000000 -0.585625 -0.810582
vn 0.000000 -0.585625 -0.810582
vn 0.000000 -0.585625 -0.810582
vn 0.810582 -0.585625 0.000000
vn 0.810582 -0.585625 0.000000
vn 0.810582 -0.585625 0.000000
vn 0.810582 -0.585625 0.000000
vn 0.000000 -0.585625 0.810582
vn 0.000000 -0.585625 0.810582
vn 0.000000 -0.585625 0.810582
vn 0.000000 -0.585625 0.810582
vn -0.810582 -0.585625 0.000000
vn -0.810582 -0.585625 0.000000
vn -0.810582 -0.585625 0.000000
vn -0.810582 -0.585625 0.000000
s off
g pCube2
usemtl initialShadingGroup
f 9/13/25 10/14/26 12/16/27 11/15/28
f 11/15/29 12/16/30 14/18/31 13/17/32
f 13/17/33 14/18/34 16/20/35 15/19/36
f 21/31/37 22/32/38 23/33/39 24/34/40
f 10/14/41 16/23/42 14/24/43 12/16/44
f 15/25/45 9/13/46 11/15/47 13/26/48
f 15/19/49 16/20/50 18/28/51 17/27/52
f 16/20/53 10/22/54 19/29/55 18/28/56
f 10/22/57 9/21/58 20/30/59 19/29/60
f 9/21/61 15/19/62 17/27/63 20/30/64
f 17/27/65 18/28/66 22/32/67 21/31/68
f 18/28/69 19/29/70 23/33/71 22/32/72
f 19/29/73 20/30/74 24/34/75 23/33/76
f 20/30/77 17/27/78 21/31/79 24/34/80
g default
v 0.025000 -0.137745 -0.025000
v 2.275000 -0.137745 -0.025000
v 0.025000 0.137745 -0.025000
v 2.275000 0.137745 -0.025000
v 0.025000 0.137745 -2.275000
v 2.275000 0.137745 -2.275000
v 0.025000 -0.137745 -2.275000
v 2.275000 -0.137745 -2.275000
v 0.091919 -0.137745 -2.208081
v 2.208081 -0.137745 -2.208081
v 2.208081 -0.137745 -0.091919
v 0.091919 -0.137745 -0.091919
v 0.158413 -0.229781 -2.141587
v 2.141587 -0.229781 -2.141587
v 2.141587 -0.229781 -0.158413
v 0.158413 -0.229781 -0.158413
vt 0.375000 0.000000
vt 0.625000 0.000000
vt 0.375000 0.250000
vt 0.625000 0.250000
vt 0.375000 0.500000
vt 0.625000 0.500000
vt 0.375000 0.750000
vt 0.625000 0.750000
vt 0.375000 1.000000
vt 0.625000 1.000000
vt 0.875000 0.000000
vt 0.875000 0.250000
vt 0.125000 0.000000
vt 0.125000 0.250000
vt 0.375000 0.750000
vt 0.625000 0.750000
vt 0.625000 1.000000
vt 0.375000 1.000000
vt 0.375000 0.750000
vt 0.625000 0.750000
vt 0.625000 1.000000
vt 0.375000 1.000000
vn 0.000000 0.000000 1.000000
vn 0.000000 0.000000 1.000000
vn 0.000000 0.000000 1.000000
vn 0.000000 0.000000 1.000000
vn 0.000000 1.000000 0.000000
vn 0.000000 1.000000 0.000000
vn 0.000000 1.000000 0.000000
vn 0.000000 1.000000 0.000000
vn 0.000000 0.000000 -1.000000
vn 0.000000 0.000000 -1.000000
vn 0.000000 0.000000 -1.000000
vn 0.000000 0.000000 -1.000000
vn 0.000000 -1.000000 0.000000
vn 0.000000 -1.000000 0.000000
vn 0.000000 -1.000000 0.000000
vn 0.000000 -1.000000 0.000000
vn 1.000000 0.000000 0.000000
vn 1.000000 0.000000 0.000000
vn 1.000000 0.000000 0.000000
vn 1.000000 0.000000 0.000000
vn -1.000000 0.000000 0.000000
vn -1.000000 0.000000 0.000000
vn -1.000000 0.000000 0.000000
vn -1.000000 0.000000 0.000000
vn 0.000000 -1.000000 -0.000000
vn 0.000000 -1.000000 -0.000000
vn 0.000000 -1.000000 -0.000000
vn 0.000000 -1.000000 -0.000000
vn 0.000000 -1.000000 0.000000
vn 0.000000 -1.000000 0.000000
vn 0.000000 -1.000000 0.000000
vn 0.000000 -1.000000 0.000000
vn 0.000000 -1.000000 0.000000
vn 0.000000 -1.000000 0.000000
vn 0.000000 -1.000000 0.000000
vn 0.000000 -1.000000 0.000000
vn 0.000000 -1.000000 0.000000
vn 0.000000 -1.000000 0.000000
vn 0.000000 -1.000000 0.000000
vn 0.000000 -1.000000 0.000000
vn 0.000000 -0.585625 -0.810582
vn 0.000000 -0.585625 -0.810582
vn 0.000000 -0.585625 -0.810582
vn 0.000000 -0.585625 -0.810582
vn 0.810582 -0.585625 0.000000
vn 0.810582 -0.585625 0.000000
vn 0.810582 -0.585625 0.000000
vn 0.810582 -0.585625 0.000000
vn 0.000000 -0.585625 0.810582
vn 0.000000 -0.585625 0.810582
vn 0.000000 -0.585625 0.810582
vn 0.000000 -0.585625 0.810582
vn -0.810582 -0.585625 0.000000
vn -0.810582 -0.585625 0.000000
vn -0.810582 -0.585625 0.000000
vn -0.810582 -0.585625 0.000000
s off
g pCube5
usemtl initialShadingGroup
f 25/35/81 26/36/82 28/38/83 27/37/84
f 27/37/85 28/38/86 30/40/87 29/39/88
f 29/39/89 30/40/90 32/42/91 31/41/92
f 37/53/93 38/54/94 39/55/95 40/56/96
f 26/36/97 32/45/98 30/46/99 28/38/100
f 31/47/101 25/35/102 27/37/103 29/48/104
f 31/41/105 32/42/106 34/50/107 33/49/108
f 32/42/109 26/44/110 35/51/111 34/50/112
f 26/44/113 25/43/114 36/52/115 35/51/116
f 25/43/117 31/41/118 33/49/119 36/52/120
f 33/49/121 34/50/122 38/54/123 37/53/124
f 34/50/125 35/51/126 39/55/127 38/54/128
f 35/51/129 36/52/130 40/56/131 39/55/132
f 36/52/133 33/49/134 37/53/135 40/56/136
g default
v 0.025000 -0.137745 2.475000
v 2.275000 -0.137745 2.475000
v 0.025000 0.137745 2.475000
v 2.275000 0.137745 2.475000
v 0.025000 0.137745 0.225000
v 2.275000 0.137745 0.225000
v 0.025000 -0.137745 0.225000
v 2.275000 -0.137745 0.225000
v 0.091919 -0.137745 0.291919
v 2.208081 -0.137745 0.291919
v 2.208081 -0.137745 2.408081
v 0.091919 -0.137745 2.408081
v 0.158413 -0.229781 0.358413
v 2.141587 -0.229781 0.358413
v 2.141587 -0.229781 2.341587
v 0.158413 -0.229781 2.341587
vt 0.375000 0.000000
vt 0.625000 0.000000
vt 0.375000 0.250000
vt 0.625000 0.250000
vt 0.375000 0.500000
vt 0.625000 0.500000
vt 0.375000 0.750000
vt 0.625000 0.750000
vt 0.375000 1.000000
vt 0.625000 1.000000
vt 0.875000 0.000000
vt 0.875000 0.250000
vt 0.125000 0.000000
vt 0.125000 0.250000
vt 0.375000 0.750000
vt 0.625000 0.750000
vt 0.625000 1.000000
vt 0.375000 1.000000
vt 0.375000 0.750000
vt 0.625000 0.750000
vt 0.625000 1.000000
vt 0.375000 1.000000
vn 0.000000 0.000000 1.000000
vn 0.000000 0.000000 1.000000
vn 0.000000 0.000000 1.000000
vn 0.000000 0.000000 1.000000
vn 0.000000 1.000000 0.000000
vn 0.000000 1.000000 0.000000
vn 0.000000 1.000000 0.000000
vn 0.000000 1.000000 0.000000
vn 0.000000 0.000000 -1.000000
vn 0.000000 0.000000 -1.000000
vn 0.000000 0.000000 -1.000000
vn 0.000000 0.000000 -1.000000
vn 0.000000 -1.000000 0.000000
vn 0.000000 -1.000000 0.000000
vn 0.000000 -1.000000 0.000000
vn 0.000000 -1.000000 0.000000
vn 1.000000 0.000000 0.000000
vn 1.000000 0.000000 0.000000
vn 1.000000 0.000000 0.000000
vn 1.000000 0.000000 0.000000
vn -1.000000 0.000000 0.000000
vn -1.000000 0.000000 0.000000
vn -1.000000 0.000000 0.000000
vn -1.000000 0.000000 0.000000
vn 0.000000 -1.000000 -0.000000
vn 0.000000 -1.000000 -0.000000
vn 0.000000 -1.000000 -0.000000
vn 0.000000 -1.000000 -0.000000
vn 0.000000 -1.000000 0.000000
vn 0.000000 -1.000000 0.000000
vn 0.000000 -1.000000 0.000000
vn 0.000000 -1.000000 0.000000
vn 0.000000 -1.000000 0.000000
vn 0.000000 -1.000000 0.000000
vn 0.000000 -1.000000 0.000000
vn 0.000000 -1.000000 0.000000
vn 0.000000 -1.000000 0.000000
vn 0.000000 -1.000000 0.000000
vn 0.000000 -1.000000 0.000000
vn 0.000000 -1.000000 0.000000
vn 0.000000 -0.585625 -0.810582
vn 0.000000 -0.585625 -0.810582
vn 0.000000 -0.585625 -0.810582
vn 0.000000 -0.585625 -0.810582
vn 0.810582 -0.585625 0.000000
vn 0.810582 -0.585625 0.000000
vn 0.810582 -0.585625 0.000000
vn 0.810582 -0.585625 0.000000
vn 0.000000 -0.585625 0.810582
vn 0.000000 -0.585625 0.810582
vn 0.000000 -0.585625 0.810582
vn 0.000000 -0.585625 0.810582
vn -0.810582 -0.585625 0.000000
vn -0.810582 -0.585625 0.000000
vn -0.810582 -0.585625 0.000000
vn -0.810582 -0.585625 0.000000
s off
g pCube6
usemtl initialShadingGroup
f 41/57/137 42/58/138 44/60/139 43/59/140
f 43/59/141 44/60/142 46/62/143 45/61/144
f 45/61/145 46/62/146 48/64/147 47/63/148
f 53/75/149 54/76/150 55/77/151 56/78/152
f 42/58/153 48/67/154 46/68/155 44/60/156
f 47/69/157 41/57/158 43/59/159 45/70/160
f 47/63/161 48/64/162 50/72/163 49/71/164
f 48/64/165 42/66/166 51/73/167 50/72/168
f 42/66/169 41/65/170 52/74/171 51/73/172
f 41/65/173 47/63/174 49/71/175 52/74/176
f 49/71/177 50/72/178 54/76/179 53/75/180
f 50/72/181 51/73/182 55/77/183 54/76/184
f 51/73/185 52/74/186 56/78/187 55/77/188
f 52/74/189 49/71/190 53/75/191 56/78/192
g default
v -2.475000 -0.137745 2.475000
v -0.225000 -0.137745 2.475000
v -2.475000 0.137745 2.475000
v -0.225000 0.137745 2.475000
v -2.475000 0.137745 0.225000
v -0.225000 0.137745 0.225000
v -2.475000 -0.137745 0.225000
v -0.225000 -0.137745 0.225000
v -2.408081 -0.137745 0.291919
v -0.291919 -0.137745 0.291919
v -0.291919 -0.137745 2.408081
v -2.408081 -0.137745 2.408081
v -2.341587 -0.229781 0.358413
v -0.358413 -0.229781 0.358413
v -0.358413 -0.229781 2.341587
v -2.341587 -0.229781 2.341587
vt 0.375000 0.000000
vt 0.625000 0.000000
vt 0.375000 0.250000
vt 0.625000 0.250000
vt 0.375000 0.500000
vt 0.625000 0.500000
vt 0.375000 0.750000
vt 0.625000 0.750000
vt 0.375000 1.000000
vt 0.625000 1.000000
vt 0.875000 0.000000
vt 0.875000 0.250000
vt 0.125000 0.000000
vt 0.125000 0.250000
vt 0.375000 0.750000
vt 0.625000 0.750000
vt 0.625000 1.000000
vt 0.375000 1.000000
vt 0.375000 0.750000
vt 0.625000 0.750000
vt 0.625000 1.000000
vt 0.375000 1.000000
vn 0.000000 0.000000 1.000000
vn 0.000000 0.000000 1.000000
vn 0.000000 0.000000 1.000000
vn 0.000000 0.000000 1.000000
vn 0.000000 1.000000 0.000000
vn 0.000000 1.000000 0.000000
vn 0.000000 1.000000 0.000000
vn 0.000000 1.000000 0.000000
vn 0.000000 0.000000 -1.000000
vn 0.000000 0.000000 -1.000000
vn 0.000000 0.000000 -1.000000
vn 0.000000 0.000000 -1.000000
vn 0.000000 -1.000000 0.000000
vn 0.000000 -1.000000 0.000000
vn 0.000000 -1.000000 0.000000
vn 0.000000 -1.000000 0.000000
vn 1.000000 0.000000 0.000000
vn 1.000000 0.000000 0.000000
vn 1.000000 0.000000 0.000000
vn 1.000000 0.000000 0.000000
vn -1.000000 0.000000 0.000000
vn -1.000000 0.000000 0.000000
vn -1.000000 0.000000 0.000000
vn -1.000000 0.000000 0.000000
vn 0.000000 -1.000000 -0.000000
vn 0.000000 -1.000000 -0.000000
vn 0.000000 -1.000000 -0.000000
vn 0.000000 -1.000000 -0.000000
vn 0.000000 -1.000000 0.000000
vn 0.000000 -1.000000 0.000000
vn 0.000000 -1.000000 0.000000
vn 0.000000 -1.000000 0.000000
vn 0.000000 -1.000000 0.000000
vn 0.000000 -1.000000 0.000000
vn 0.000000 -1.000000 0.000000
vn 0.000000 -1.000000 0.000000
vn 0.000000 -1.000000 0.000000
vn 0.000000 -1.000000 0.000000
vn 0.000000 -1.000000 0.000000
vn 0.000000 -1.000000 0.000000
vn 0.000000 -0.585625 -0.810582
vn 0.000000 -0.585625 -0.810582
vn 0.000000 -0.585625 -0.810582
vn 0.000000 -0.585625 -0.810582
vn 0.810582 -0.585625 0.000000
vn 0.810582 -0.585625 0.000000
vn 0.810582 -0.585625 0.000000
vn 0.810582 -0.585625 0.000000
vn 0.000000 -0.585625 0.810582
vn 0.000000 -0.585625 0.810582
vn 0.000000 -0.585625 0.810582
vn 0.000000 -0.585625 0.810582
vn -0.810582 -0.585625 0.000000
vn -0.810582 -0.585625 0.000000
vn -0.810582 -0.585625 0.000000
vn -0.810582 -0.585625 0.000000
s off
g pCube7
usemtl initialShadingGroup
f 57/79/193 58/80/194 60/82/195 59/81/196
f 59/81/197 60/82/198 62/84/199 61/83/200
f 61/83/201 62/84/202 64/86/203 63/85/204
f 69/97/205 70/98/206 71/99/207 72/100/208
f 58/80/209 64/89/210 62/90/211 60/82/212
f 63/91/213 57/79/214 59/81/215 61/92/216
f 63/85/217 64/86/218 66/94/219 65/93/220
f 64/86/221 58/88/222 67/95/223 66/94/224
f 58/88/225 57/87/226 68/96/227 67/95/228
f 57/87/229 63/85/230 65/93/231 68/96/232
f 65/93/233 66/94/234 70/98/235 69/97/236
f 66/94/237 67/95/238 71/99/239 70/98/240
f 67/95/241 68/96/242 72/100/243 71/99/244
f 68/96/245 65/93/246 69/97/247 72/100/248
