# This file uses centimeters as units for non-parametric coordinates.

mtllib Planter 1.mtl
g default
v -3.874263 -0.078662 3.880296
v -3.396038 -0.078662 3.880296
v -3.874263 0.950085 3.880296
v -3.396038 0.950085 3.880296
v -3.874263 0.950085 -1.062213
v -3.396038 0.950085 -1.062213
v -3.874263 -0.078662 -1.062213
v -3.396038 -0.078662 -1.062213
v -3.396038 0.950085 3.435652
v -3.874263 0.950085 3.435652
v -3.874263 -0.078662 3.435652
v -3.396038 -0.078662 3.435652
v -1.011060 -0.078662 3.435652
v -1.011060 -0.078662 3.880296
v -1.011060 0.950085 3.435652
v -1.011060 0.950085 3.880296
v -1.388735 0.950085 3.435652
v -1.388735 -0.078662 3.435652
v -1.388735 -0.078662 3.880296
v -1.388735 0.950085 3.880296
v -1.388735 0.950085 2.527837
v -1.388735 -0.078662 2.527837
v -1.011060 0.950085 2.527837
v -1.011060 -0.078662 2.527837
v -3.396038 0.950085 -0.552418
v -3.874263 0.950085 -0.552418
v -3.874263 -0.078662 -0.552418
v -3.396038 -0.078662 -0.552418
v -2.530493 -0.078662 -0.552418
v -2.530493 0.950085 -0.552418
v -2.530493 -0.078662 -1.062213
v -2.530493 0.950085 -1.062213
vt 0.375000 0.000000
vt 0.625000 0.000000
vt 0.375000 0.250000
vt 0.625000 0.250000
vt 0.375000 0.500000
vt 0.625000 0.500000
vt 0.375000 0.750000
vt 0.625000 0.750000
vt 0.375000 1.000000
vt 0.625000 1.000000
vt 0.875000 0.000000
vt 0.875000 0.250000
vt 0.125000 0.000000
vt 0.125000 0.250000
vt 0.625000 0.272491
vt 0.647491 0.250000
vt 0.352509 0.250000
vt 0.375000 0.272491
vt 0.352509 0.000000
vt 0.375000 0.977509
vt 0.625000 0.977509
vt 0.647491 0.000000
vt 0.625000 0.000000
vt 0.647491 0.000000
vt 0.647491 0.250000
vt 0.625000 0.250000
vt 0.647491 0.250000
vt 0.647491 0.000000
vt 0.625000 0.000000
vt 0.625000 0.250000
vt 0.647491 0.000000
vt 0.647491 0.250000
vt 0.647491 0.250000
vt 0.647491 0.000000
vt 0.625000 0.474214
vt 0.849214 0.250000
vt 0.150786 0.250000
vt 0.375000 0.474214
vt 0.150786 0.000000
vt 0.375000 0.775786
vt 0.625000 0.775786
vt 0.849214 0.000000
vt 0.849214 0.250000
vt 0.849214 0.000000
vt 0.875000 0.000000
vt 0.875000 0.250000
vn 0.000000 0.000000 1.000000
vn 0.000000 0.000000 1.000000
vn 0.000000 0.000000 1.000000
vn 0.000000 0.000000 1.000000
vn 0.000000 1.000000 0.000000
vn 0.000000 1.000000 0.000000
vn 0.000000 1.000000 0.000000
vn 0.000000 1.000000 0.000000
vn 0.000000 0.000000 -1.000000
vn 0.000000 0.000000 -1.000000
vn 0.000000 0.000000 -1.000000
vn 0.000000 0.000000 -1.000000
vn 0.000000 -1.000000 0.000000
vn 0.000000 -1.000000 0.000000
vn 0.000000 -1.000000 0.000000
vn 0.000000 -1.000000 0.000000
vn 1.000000 0.000000 0.000000
vn 1.000000 0.000000 0.000000
vn 1.000000 0.000000 0.000000
vn 1.000000 0.000000 0.000000
vn -1.000000 0.000000 0.000000
vn -1.000000 0.000000 0.000000
vn -1.000000 0.000000 0.000000
vn -1.000000 0.000000 0.000000
vn 0.000000 1.000000 0.000000
vn 0.000000 1.000000 0.000000
vn -1.000000 0.000000 0.000000
vn -1.000000 0.000000 0.000000
vn 0.000000 -1.000000 0.000000
vn 0.000000 -1.000000 0.000000
vn 1.000000 0.000000 0.000000
vn 1.000000 0.000000 0.000000
vn 1.000000 0.000000 0.000000
vn 1.000000 0.000000 0.000000
vn 0.000000 -1.000000 0.000000
vn 0.000000 -1.000000 0.000000
vn 0.000000 0.000000 -1.000000
vn 0.000000 0.000000 -1.000000
vn 0.000000 0.000000 -1.000000
vn 0.000000 0.000000 -1.000000
vn 0.000000 1.000000 0.000000
vn 0.000000 1.000000 0.000000
vn 0.000000 0.000000 1.000000
vn 0.000000 0.000000 1.000000
vn 0.000000 0.000000 -1.000000
vn 0.000000 0.000000 -1.000000
vn 0.000000 0.000000 -1.000000
vn 0.000000 0.000000 -1.000000
vn 0.000000 -1.000000 0.000000
vn 0.000000 -1.000000 0.000000
vn 0.000000 0.000000 1.000000
vn 0.000000 0.000000 1.000000
vn 0.000000 1.000000 0.000000
vn 0.000000 1.000000 0.000000
vn -1.000000 0.000000 0.000000
vn -1.000000 0.000000 0.000000
vn -1.000000 0.000000 0.000000
vn -1.000000 0.000000 0.000000
vn 0.000000 1.000000 0.000000
vn 0.000000 1.000000 0.000000
vn 1.000000 0.000000 0.000000
vn 1.000000 0.000000 0.000000
vn 0.000000 -1.000000 0.000000
vn 0.000000 -1.000000 0.000000
vn 0.000000 1.000000 0.000000
vn 0.000000 1.000000 0.000000
vn -1.000000 0.000000 0.000000
vn -1.000000 0.000000 0.000000
vn 0.000000 -1.000000 0.000000
vn 0.000000 -1.000000 0.000000
vn 1.000000 0.000000 0.000000
vn 1.000000 0.000000 0.000000
vn 1.000000 0.000000 0.000000
vn 1.000000 0.000000 0.000000
vn 0.000000 0.000000 1.000000
vn 0.000000 0.000000 1.000000
vn 0.000000 0.000000 1.000000
vn 0.000000 0.000000 1.000000
vn 0.000000 -1.000000 0.000000
vn 0.000000 -1.000000 0.000000
vn 0.000000 0.000000 -1.000000
vn 0.000000 0.000000 -1.000000
vn 0.000000 1.000000 0.000000
vn 0.000000 1.000000 0.000000
s 1
g pCube7
usemtl initialShadingGroup
f 1/1/1 2/2/2 4/4/3 3/3/4
s 2
f 3/3/5 4/4/6 9/15/7 10/18/8
s 3
f 5/5/9 6/6/10 8/8/11 7/7/12
s 4
f 11/20/13 12/21/14 2/10/15 1/9/16
s 5
f 14/23/17 13/24/18 15/25/19 16/26/20
s 6
f 11/19/21 1/1/22 3/3/23 10/17/24
s 2
f 10/18/8 9/15/7 25/35/25 26/38/26
s 6
f 27/39/27 11/19/21 10/17/24 26/37/28
s 4
f 27/40/29 28/41/30 12/21/14 11/20/13
s off
f 9/16/31 12/22/32 28/42/33 25/36/34
s 4
f 2/2/15 12/22/14 18/28/35 19/29/36
s off
f 12/22/37 9/16/38 17/27/39 18/28/40
s 2
f 9/16/7 4/4/6 20/30/41 17/27/42
s 1
f 4/4/3 2/2/2 19/29/43 20/30/44
s off
f 22/31/45 21/32/46 23/33/47 24/34/48
s 4
f 19/29/36 18/28/35 13/24/49 14/23/50
s 1
f 20/30/44 19/29/43 14/23/51 16/26/52
s 2
f 17/27/42 20/30/41 16/26/53 15/25/54
s off
f 18/28/55 17/27/56 21/32/57 22/31/58
s 2
f 17/27/42 15/25/54 23/33/59 21/32/60
s 5
f 15/25/19 13/24/18 24/34/61 23/33/62
s 4
f 13/24/49 18/28/35 22/31/63 24/34/64
s 2
f 26/38/26 25/35/25 6/6/65 5/5/66
s 6
f 7/13/67 27/39/27 26/37/28 5/14/68
s 4
f 7/7/69 8/8/70 28/41/30 27/40/29
s off
f 30/43/71 29/44/72 31/45/73 32/46/74
f 25/36/75 28/42/76 29/44/77 30/43/78
s 4
f 28/42/30 8/11/70 31/45/79 29/44/80
s 3
f 8/11/11 6/12/10 32/46/81 31/45/82
s 2
f 6/12/65 25/36/25 30/43/83 32/46/84
g default
v -3.399078 0.535794 3.455506
v -2.510788 0.535794 3.455506
v -1.376077 0.535794 3.455506
v -3.399078 0.535794 2.505909
v -2.510788 0.535794 2.505909
v -1.376077 0.535794 2.505909
v -3.399078 0.535794 0.810184
v -2.510788 0.535794 0.810184
v -3.399078 0.535794 -0.553233
v -2.510788 0.535794 -0.553233
vt 0.000000 0.000000
vt 0.333333 0.000000
vt 0.666667 0.000000
vt 0.000000 0.333333
vt 0.333333 0.333333
vt 0.666667 0.333333
vt 0.000000 0.666667
vt 0.333333 0.666667
vt 0.000000 1.000000
vt 0.333333 1.000000
vn 0.000000 1.000000 0.000000
vn 0.000000 1.000000 0.000000
vn 0.000000 1.000000 0.000000
vn 0.000000 1.000000 0.000000
vn 0.000000 1.000000 0.000000
vn 0.000000 1.000000 0.000000
vn 0.000000 1.000000 0.000000
vn 0.000000 1.000000 0.000000
vn 0.000000 1.000000 0.000000
vn 0.000000 1.000000 0.000000
s 1
g pPlane3
usemtl initialShadingGroup
f 33/47/85 34/48/86 37/51/87 36/50/88
f 34/48/86 35/49/89 38/52/90 37/51/87
f 36/50/88 37/51/87 40/54/91 39/53/92
f 39/53/92 40/54/91 42/56/93 41/55/94
